#define b517326ff04f49ccc487efa6150e3df8Va6JNl1iyYhSQ8bx_width 20
#define b517326ff04f49ccc487efa6150e3df8Va6JNl1iyYhSQ8bx_height 20
static char b517326ff04f49ccc487efa6150e3df8Va6JNl1iyYhSQ8bx_bits[] = {
  0x00, 0x00, 0x00, 0x00, 0x00, 0x00, 0x00, 0x00, 0x00, 0xE0, 0x00, 0x00, 
  0xA0, 0x00, 0x00, 0xBE, 0xFF, 0x07, 0xA0, 0x00, 0x00, 0xE0, 0x00, 0x00, 
  0x00, 0x70, 0x00, 0x00, 0x50, 0x00, 0xFE, 0xDF, 0x07, 0x00, 0x50, 0x00, 
  0x00, 0x70, 0x00, 0xE0, 0x00, 0x00, 0xA0, 0x00, 0x00, 0xBE, 0xFF, 0x07, 
  0xA0, 0x00, 0x00, 0xE0, 0x00, 0x00, 0x00, 0x00, 0x00, 0x00, 0x00, 0x00, 
  };
