#define 9c4d340af3634047ffda4e166e777278CeENsNsSi44SMMBb_width 20
#define 9c4d340af3634047ffda4e166e777278CeENsNsSi44SMMBb_height 20
static char 9c4d340af3634047ffda4e166e777278CeENsNsSi44SMMBb_bits[] = {
  0x00, 0x00, 0x00, 0xC0, 0x07, 0x00, 0x30, 0x18, 0x00, 0x08, 0x20, 0x00, 
  0x04, 0x40, 0x00, 0x04, 0x40, 0x00, 0x02, 0x80, 0x00, 0x02, 0x80, 0x00, 
  0x02, 0x80, 0x00, 0x02, 0x80, 0x00, 0x02, 0x80, 0x00, 0x04, 0x40, 0x00, 
  0x04, 0x40, 0x00, 0x08, 0x20, 0x00, 0x30, 0x58, 0x00, 0xC0, 0x87, 0x00, 
  0x00, 0x00, 0x01, 0x00, 0x00, 0x02, 0x00, 0x00, 0x04, 0x00, 0x00, 0x00, 
  };
