<svg xmlns="http://www.w3.org/2000/svg" viewBox="0 0 749.08 537.5"><defs><style>.cls-1{fill:none;stroke:#231f20;stroke-miterlimit:10;}.cls-2{font-size:29.32px;}.cls-19,.cls-2,.cls-35,.cls-36,.cls-41,.cls-6{fill:#231f20;}.cls-19,.cls-2,.cls-36,.cls-41,.cls-6{font-family:MyriadPro-Regular, Myriad Pro;}.cls-3{letter-spacing:0.01em;}.cls-4{letter-spacing:0.01em;}.cls-5{letter-spacing:0em;}.cls-6{font-size:17.69px;}.cls-7{letter-spacing:-0.03em;}.cls-8{letter-spacing:1.36em;}.cls-9{letter-spacing:2.47em;}.cls-10{letter-spacing:0.01em;}.cls-11{letter-spacing:0.01em;}.cls-12{letter-spacing:0em;}.cls-13{letter-spacing:0em;}.cls-14{letter-spacing:0em;}.cls-15{letter-spacing:-0.01em;}.cls-16{letter-spacing:-0.04em;}.cls-17{letter-spacing:0.01em;}.cls-18{letter-spacing:0em;}.cls-19{font-size:13px;}.cls-20{letter-spacing:-0.03em;}.cls-21{letter-spacing:0em;}.cls-22{letter-spacing:0em;}.cls-23{letter-spacing:-0.01em;}.cls-24{letter-spacing:0em;}.cls-25{letter-spacing:-0.01em;}.cls-26{letter-spacing:0.61em;}.cls-27{letter-spacing:2.79em;}.cls-28{letter-spacing:0em;}.cls-29{letter-spacing:0.31em;}.cls-30{letter-spacing:2.79em;}.cls-31{letter-spacing:-0.03em;}.cls-32{letter-spacing:0em;}.cls-33{letter-spacing:0em;}.cls-34{letter-spacing:0em;}.cls-36{font-size:21.94px;}.cls-37{letter-spacing:0.01em;}.cls-38{letter-spacing:0em;}.cls-39{letter-spacing:0.01em;}.cls-40{letter-spacing:-0.01em;}.cls-41{font-size:12px;}.cls-42{letter-spacing:0em;}.cls-43{letter-spacing:0em;}.cls-44{letter-spacing:-0.01em;}.cls-45{letter-spacing:0em;}.cls-46{letter-spacing:-0.01em;}.cls-47{letter-spacing:0em;}.cls-48{letter-spacing:0em;}.cls-49{letter-spacing:-0.01em;}.cls-50{letter-spacing:0em;}.cls-51{letter-spacing:0em;}.cls-52{letter-spacing:0em;}.cls-53{letter-spacing:-0.01em;}.cls-54{letter-spacing:-0.03em;}.cls-55{letter-spacing:0.01em;}.cls-56{letter-spacing:-0.01em;}.cls-57{letter-spacing:0.01em;}.cls-58{letter-spacing:0em;}.cls-59{letter-spacing:0.01em;}.cls-60{letter-spacing:0.01em;}.cls-61{letter-spacing:-0.01em;}.cls-62{letter-spacing:-0.03em;}</style></defs><title>Asset 1</title><g id="Layer_2" data-name="Layer 2"><g id="Layer_1-2" data-name="Layer 1"><rect class="cls-1" x="0.5" y="31.64" width="748.08" height="505.36"/><text class="cls-2" transform="translate(260.43 24.54)"><tspan class="cls-3">I</tspan><tspan x="7.3" y="0">nstru</tspan><tspan class="cls-4" x="70.63" y="0">c</tspan><tspan class="cls-5" x="84.15" y="0">tion view</tspan></text><line class="cls-1" x1="0.5" y1="60.62" x2="748.58" y2="60.62"/><text class="cls-6" transform="translate(7.75 52.14)"><tspan class="cls-7">F</tspan><tspan x="8.16" y="0">ile</tspan><tspan class="cls-8" x="25.33" y="0">	</tspan><tspan x="53.07" y="0">Options</tspan><tspan class="cls-9" x="111.86" y="0">	</tspan><tspan x="159.21" y="0">Help</tspan></text><text class="cls-6" transform="translate(101.03 106.48)"><tspan class="cls-10">I</tspan><tspan x="4.4" y="0">nstru</tspan><tspan class="cls-11" x="42.62" y="0">c</tspan><tspan x="50.77" y="0">tion</tspan></text><text class="cls-6" transform="translate(415.29 163.54)"><tspan class="cls-12">D</tspan><tspan x="11.85" y="0">esc</tspan><tspan class="cls-13" x="35.65" y="0">r</tspan><tspan x="41.5" y="0">iption</tspan></text><text class="cls-6" transform="translate(461.41 247.77)">Name</text><text class="cls-6" transform="translate(521.18 440.97)">Name</text><text class="cls-6" transform="translate(333.25 248.37)"><tspan class="cls-7">P</tspan><tspan x="8.95" y="0">a</tspan><tspan class="cls-14" x="17.48" y="0">r</tspan><tspan x="23.17" y="0">ame</tspan><tspan class="cls-15" x="55.32" y="0">t</tspan><tspan x="61.07" y="0">er ID</tspan></text><text class="cls-6" transform="translate(347.74 439.16)"><tspan class="cls-7">P</tspan><tspan x="8.95" y="0">a</tspan><tspan class="cls-14" x="17.48" y="0">r</tspan><tspan x="23.17" y="0">ame</tspan><tspan class="cls-15" x="55.32" y="0">t</tspan><tspan x="61.07" y="0">er ID</tspan></text><text class="cls-6" transform="translate(376.72 479.62)"><tspan class="cls-16">T</tspan><tspan x="8.08" y="0">ype</tspan></text><text class="cls-6" transform="translate(524.05 500.64)"><tspan class="cls-17">M</tspan><tspan x="14.33" y="0">ask (only visible if i</tspan><tspan class="cls-18" x="150.56" y="0">n</tspan><tspan x="160.31" y="0">t)</tspan></text><text class="cls-6" transform="translate(482.54 227.84)"><tspan class="cls-7">P</tspan><tspan x="8.95" y="0">a</tspan><tspan class="cls-14" x="17.48" y="0">r</tspan><tspan x="23.17" y="0">ame</tspan><tspan class="cls-15" x="55.32" y="0">t</tspan><tspan x="61.07" y="0">ers</tspan></text><text class="cls-19" transform="translate(614.46 226.94)"><tspan class="cls-20">P</tspan><tspan x="6.58" y="0">a</tspan><tspan class="cls-21" x="12.84" y="0">r</tspan><tspan class="cls-22" x="17.03" y="0">ame</tspan><tspan class="cls-23" x="40.65" y="0">t</tspan><tspan x="44.88" y="0">e</tspan><tspan class="cls-24" x="51.39" y="0">r</tspan><tspan x="55.69" y="0">num</tspan></text><text class="cls-6" transform="translate(13.18 86.56)"><tspan class="cls-25">C</tspan><tspan x="10.07" y="0">ode</tspan><tspan class="cls-26" x="38.62" y="0">	</tspan><tspan class="cls-27" x="53.07" y="0">	</tspan><tspan class="cls-28" x="106.14" y="0">Name</tspan><tspan class="cls-29" x="149.93" y="0">	</tspan><tspan class="cls-30" x="159.22" y="0">	</tspan><tspan class="cls-31" x="212.29" y="0">P</tspan><tspan x="221.24" y="0">a</tspan><tspan class="cls-32" x="229.76" y="0">r</tspan><tspan x="235.46" y="0">am#</tspan></text><rect class="cls-1" x="5.93" y="68.77" width="278.04" height="455.55"/><rect class="cls-1" x="10.46" y="91.42" width="268.08" height="18.11"/><rect class="cls-1" x="10.46" y="109.53" width="268.08" height="18.11"/><rect class="cls-1" x="10.46" y="128.55" width="268.08" height="18.11"/><rect class="cls-1" x="314.76" y="148.47" width="415.7" height="57.51"/><rect class="cls-1" x="314.99" y="211.87" width="415.7" height="192"/><text class="cls-6" transform="translate(460.8 426.18)"><tspan class="cls-7">P</tspan><tspan x="8.95" y="0">a</tspan><tspan class="cls-14" x="17.48" y="0">r</tspan><tspan x="23.17" y="0">ame</tspan><tspan class="cls-15" x="55.32" y="0">t</tspan><tspan x="61.07" y="0">er </tspan><tspan class="cls-33" x="79.46" y="0">D</tspan><tspan class="cls-34" x="91.32" y="0">etails</tspan></text><rect class="cls-1" x="314.99" y="410.21" width="415.7" height="102.34"/><rect class="cls-1" x="458.69" y="252.32" width="267.85" height="18.11"/><rect class="cls-1" x="459.29" y="443.72" width="267.85" height="18.11"/><rect class="cls-1" x="315.67" y="124.02" width="183.85" height="18.57"/><rect class="cls-1" x="511.29" y="124.02" width="104.6" height="19.02"/><rect class="cls-1" x="626.31" y="124.02" width="104.6" height="19.02"/><rect class="cls-1" x="322.92" y="253.38" width="121.59" height="17.66"/><rect class="cls-1" x="333.18" y="443.57" width="121.59" height="17.66"/><rect class="cls-1" x="333.18" y="486.43" width="121.59" height="17.66"/><rect class="cls-1" x="600.05" y="214.13" width="121.59" height="17.66"/><line class="cls-1" x1="134.54" y1="153.91" x2="134.54" y2="494.74"/><path class="cls-35" d="M134.54,500.77a30.15,30.15,0,0,0-4.76-8.54l4.76,1.72,4.75-1.72A30.12,30.12,0,0,0,134.54,500.77Z"/><rect class="cls-1" x="289.41" y="68.77" width="455.55" height="455.55"/><text class="cls-36" transform="translate(383.59 95.8)"><tspan class="cls-37">I</tspan><tspan class="cls-38" x="5.46" y="0">nstru</tspan><tspan class="cls-39" x="52.85" y="0">c</tspan><tspan x="62.96" y="0">tion (</tspan><tspan class="cls-40" x="110.45" y="0">c</tspan><tspan x="120.15" y="0">ode): (name)</tspan></text><text class="cls-41" transform="translate(330.16 177.45)"><tspan class="cls-42">U</tspan><tspan class="cls-43" x="7.81" y="0">tili</tspan><tspan class="cls-44" x="20.23" y="0">z</tspan><tspan x="25.28" y="0">es &lt;pa</tspan><tspan class="cls-45" x="58.35" y="0">r</tspan><tspan x="62.22" y="0">ame</tspan><tspan class="cls-46" x="84.02" y="0">t</tspan><tspan class="cls-47" x="87.92" y="0">e</tspan><tspan class="cls-48" x="93.94" y="0">r</tspan><tspan x="97.91" y="0">names&gt; </tspan><tspan class="cls-49" x="140.82" y="0">t</tspan><tspan x="144.72" y="0">o modify a desc</tspan><tspan class="cls-48" x="222.96" y="0">r</tspan><tspan x="226.93" y="0">iption of wh</tspan><tspan class="cls-50" x="287.26" y="0">a</tspan><tspan class="cls-47" x="293" y="0">t the </tspan><tspan class="cls-46" x="318.7" y="0">c</tspan><tspan x="324.01" y="0">ode will do</tspan><tspan x="0" y="14.4">based on the pa</tspan><tspan class="cls-45" x="80.28" y="14.4">r</tspan><tspan class="cls-51" x="84.14" y="14.4">ame</tspan><tspan class="cls-46" x="105.95" y="14.4">t</tspan><tspan x="109.85" y="14.4">er </tspan><tspan class="cls-52" x="122.33" y="14.4">v</tspan><tspan x="128.05" y="14.4">alue</tspan><tspan class="cls-53" x="149.29" y="14.4">s</tspan><tspan class="cls-47" x="153.91" y="14.4">.</tspan></text><text class="cls-41" transform="translate(323.82 136.7)"><tspan class="cls-54">F</tspan><tspan x="5.42" y="0">un</tspan><tspan class="cls-55" x="18.7" y="0">c</tspan><tspan x="24.23" y="0">tion </tspan><tspan class="cls-56" x="46.8" y="0">L</tspan><tspan x="52.3" y="0">oc</tspan><tspan class="cls-52" x="64.26" y="0">a</tspan><tspan x="70" y="0">tion</tspan></text><text class="cls-41" transform="translate(337.41 111.34)"><tspan class="cls-57">I</tspan><tspan class="cls-58" x="2.99" y="0">mpleme</tspan><tspan class="cls-52" x="44.69" y="0">n</tspan><tspan x="51.3" y="0">t </tspan><tspan class="cls-59" x="57.81" y="0">I</tspan><tspan x="60.8" y="0">nstru</tspan><tspan class="cls-60" x="86.72" y="0">c</tspan><tspan x="92.25" y="0">tion</tspan></text><text class="cls-41" transform="translate(517.63 136.7)">Ha<tspan class="cls-61" x="13.61" y="0">r</tspan><tspan x="17.41" y="0">d </tspan><tspan class="cls-62" x="26.72" y="0">P</tspan><tspan x="32.8" y="0">a</tspan><tspan class="cls-45" x="38.58" y="0">r</tspan><tspan x="42.44" y="0">am1</tspan></text><text class="cls-41" transform="translate(643.52 136.7)">Ha<tspan class="cls-61" x="13.61" y="0">r</tspan><tspan x="17.41" y="0">d </tspan><tspan class="cls-62" x="26.72" y="0">P</tspan><tspan x="32.8" y="0">a</tspan><tspan class="cls-45" x="38.58" y="0">r</tspan><tspan x="42.44" y="0">am2</tspan></text><text class="cls-41" transform="translate(635.97 110.43)"><tspan class="cls-53">C</tspan><tspan x="6.83" y="0">ommit Changes</tspan></text><rect class="cls-1" x="314.76" y="99.57" width="15.4" height="15.4"/><rect class="cls-1" x="627.22" y="99.57" width="105.06" height="14.49"/><polygon class="cls-35" points="710.8 220.9 718.73 220.9 714.84 216.17 710.8 220.9"/><polygon class="cls-35" points="710.8 224.22 718.73 224.22 714.84 228.62 710.8 224.22"/><line class="cls-1" x1="707.37" y1="214.13" x2="707.37" y2="231.94"/></g></g></svg>